<?xml version="1.0" encoding="utf-8"?>
<!-- Generator: Adobe Illustrator 18.1.1, SVG Export Plug-In . SVG Version: 6.00 Build 0)  -->
<!DOCTYPE svg PUBLIC "-//W3C//DTD SVG 1.1//EN" "http://www.w3.org/Graphics/SVG/1.1/DTD/svg11.dtd">
<svg version="1.1" id="Layer_1" xmlns="http://www.w3.org/2000/svg" xmlns:xlink="http://www.w3.org/1999/xlink" x="0px" y="0px"
	 viewBox="0 0 240 43.4" enable-background="new 0 0 240 43.4" xml:space="preserve">
<g>
	<path fill="#FFFFFF" d="M84.6,37.4c-4,0-5.2-2.6-5.2-6.2V7.7c1.4-0.8,3.3-1.2,5.9-1.2v23.7c0,1.5,0.5,1.9,1.7,1.9
		c0.9,0,1.7-0.2,2.5-0.7c0.2,1.7-0.4,3.9-1.1,5C87.3,37.1,86,37.4,84.6,37.4z"/>
	<path fill="#FFFFFF" d="M99,9.5c0,2.4-1.4,3.7-3.5,3.7c-2.3,0-3.6-1.3-3.6-3.6c0-2.2,1.5-3.5,3.6-3.5C97.6,6.1,99,7.3,99,9.5z
		 M92.6,16.8c0.6-0.3,1.5-0.5,2.9-0.5c1.4,0,2.4,0.2,2.9,0.5v19.5c-0.5,0.3-1.5,0.5-2.9,0.5c-1.4,0-2.4-0.2-2.9-0.5V16.8z"/>
	<path fill="#FFFFFF" d="M105,16.5v-1.9c0-6.4,3.1-8.6,7.7-8.6c1.7,0,3.1,0.3,4.2,1c0.8,1.3,1.1,3.6,0.9,5.2c-1.3-0.7-2.5-1-3.8-1
		c-2.2,0-3.1,1-3.1,3.1v2.3h4.9c0.2,0.5,0.4,1.5,0.4,2.5s-0.1,2-0.4,2.5h-4.9v14.8c-0.5,0.3-1.5,0.5-2.9,0.5c-1.4,0-2.4-0.2-2.9-0.5
		V21.5h-3.1c0-1.7,0.3-3.7,0.8-5H105z"/>
	<path fill="#FFFFFF" d="M123.6,28.5c0.2,2.8,2.3,4.2,6.3,4.2c2.6,0,4.8-0.6,6.3-1.2c0.1,1.5-0.5,3.5-1.5,4.6
		c-1.3,0.8-3.6,1.4-6.4,1.4c-7.1,0-10.8-4.1-10.8-10.6c0-6.7,4-11.1,10.4-11.1c5.9,0,8.6,3.6,8.6,9c0,1.3-0.2,2.7-0.6,3.8H123.6z
		 M131,24.2c0.3-2.1-0.4-4.2-3.4-4.2c-2.5,0-4,1.6-4.2,4.2H131z"/>
	<path fill="#FFFFFF" d="M146.1,37.4c-4,0-5.2-2.6-5.2-6.2V7.7c1.4-0.8,3.3-1.2,5.9-1.2v23.7c0,1.5,0.5,1.9,1.7,1.9
		c0.9,0,1.7-0.2,2.5-0.7c0.2,1.7-0.4,3.9-1.1,5C148.8,37.1,147.6,37.4,146.1,37.4z"/>
	<path fill="#FFFFFF" d="M160.6,9.5c0,2.4-1.4,3.7-3.5,3.7c-2.3,0-3.6-1.3-3.6-3.6c0-2.2,1.5-3.5,3.6-3.5
		C159.2,6.1,160.6,7.3,160.6,9.5z M154.2,16.8c0.6-0.3,1.5-0.5,2.9-0.5c1.4,0,2.4,0.2,2.9,0.5v19.5c-0.5,0.3-1.5,0.5-2.9,0.5
		c-1.4,0-2.4-0.2-2.9-0.5V16.8z"/>
	<path fill="#FFFFFF" d="M171.6,36.3c-0.5,0.3-1.5,0.5-2.9,0.5c-1.4,0-2.4-0.2-2.9-0.5V17c1.1-0.6,2.8-0.9,4.8-0.9l0.3,3.3h0.3
		c1-2.1,3-3.7,6.7-3.7c3.1,0,6.7,1.1,6.7,7.8v12.8c-0.5,0.3-1.5,0.5-2.9,0.5c-1.4,0-2.4-0.2-2.9-0.5V24.5c0-2.1-0.7-3.4-3.1-3.4
		c-2.1,0-3.3,1-4,2.3V36.3z"/>
	<path fill="#FFFFFF" d="M197.9,23.3l4.8-6.7c0.4-0.2,1.4-0.3,2.3-0.3c1.7,0,3.1,0.3,3.8,0.8l-6.1,8.5c2.1,3.6,4.3,7.2,7.1,10.7
		c-0.6,0.4-1.8,0.5-3.2,0.5c-1.5,0-3.1-0.2-3.8-0.5c-2-2.6-3.6-5.1-5.2-8.2h-1.8v8.2c-0.5,0.3-1.5,0.5-2.9,0.5
		c-1.4,0-2.4-0.2-2.9-0.5V7.7c1.4-0.8,3.3-1.2,5.9-1.2v16.8H197.9z"/>
</g>
<path opacity="0.7" fill="#0B7E83" d="M42.7,19.7c-2.5-1.4-6.6-1.4-9.2,0l-15.4,8.7c-2.5,1.4-2.5,3.8,0,5.2l15.4,8.7
	c2.5,1.4,6.6,1.4,9.2,0l15.4-8.7c2.5-1.4,2.5-3.8,0-5.2L42.7,19.7z"/>
<g>
	<path fill="#0B7E83" d="M42.7,12.1c-2.5-1.4-6.6-1.4-9.2,0l-15.4,8.7c-2.5,1.4-2.5,3.8,0,5.2l15.4,8.7c2.5,1.4,6.6,1.4,9.2,0
		l15.4-8.7c2.5-1.4,2.5-3.8,0-5.2L42.7,12.1z"/>
</g>
<g opacity="0.5">
	<path fill="#75CBCF" d="M42.7,2.5c-2.5-1.4-6.6-1.4-9.2,0l-15.4,8.7c-2.5,1.4-2.5,3.8,0,5.2l15.4,8.7c2.5,1.4,6.6,1.4,9.2,0
		l15.4-8.7c2.5-1.4,2.5-3.8,0-5.2L42.7,2.5z"/>
</g>
<g>
	<path fill="#FFFFFF" d="M38.6,27.8c-2,0-3.9-0.4-5.3-1.3l-15.4-8.7c-1.7-0.9-2.6-2.4-2.6-3.9s1-2.9,2.6-3.9l15.4-8.7
		C34.7,0.4,36.6,0,38.6,0s3.9,0.4,5.3,1.3L59.3,10c1.7,0.9,2.6,2.4,2.6,3.9s-1,2.9-2.6,3.9l-15.4,8.7C42.5,27.3,40.6,27.8,38.6,27.8
		z M38.6,2.9c-1.5,0-2.9,0.3-3.9,0.9l-15.4,8.7c-0.7,0.4-1.1,0.9-1.1,1.3c0,0.4,0.4,0.9,1.1,1.3L34.7,24c1,0.6,2.4,0.9,3.9,0.9
		s2.9-0.3,3.9-0.9l15.4-8.7c0.7-0.4,1.1-0.9,1.1-1.3c0-0.4-0.4-0.9-1.1-1.3L42.4,3.8C41.5,3.2,40.1,2.9,38.6,2.9z"/>
</g>
<path fill="#FFFFFF" d="M19.1,9.4l14.1,8c1.4,0.8,3.3,1.3,5.3,1.3s3.9-0.4,5.3-1.3l2-1.1l-2.9-1.7l-0.5,0.3c-1,0.6-2.4,0.9-3.9,0.9
	s-2.9-0.3-3.9-0.9L22.2,7.8"/>
<path fill="#FFFFFF" d="M57.9,18.3l-14-8C42.5,9.5,40.6,9,38.6,9s-3.9,0.4-5.3,1.3l-1.9,1.1l3,1.7l0.4-0.2c1-0.6,2.4-0.9,3.9-0.9
	s2.9,0.3,3.9,0.9l12.3,7"/>
</svg>
