<?xml version="1.0" encoding="utf-8"?>
<!-- Generator: Adobe Illustrator 18.1.1, SVG Export Plug-In . SVG Version: 6.00 Build 0)  -->
<!DOCTYPE svg PUBLIC "-//W3C//DTD SVG 1.1//EN" "http://www.w3.org/Graphics/SVG/1.1/DTD/svg11.dtd">
<svg version="1.1" id="Layer_1" xmlns="http://www.w3.org/2000/svg" xmlns:xlink="http://www.w3.org/1999/xlink" x="0px" y="0px"
	 viewBox="0 0 1280 1280" enable-background="new 0 0 1280 1280" xml:space="preserve">
<g>
	<path fill="#FFFFFF" d="M297.3,1058.2c-23.2,0-30.1-15.1-30.1-35.7V887.5c7.9-4.4,18.8-6.7,33.6-6.7V1017c0,8.8,3,11.1,9.7,11.1
		c5.3,0,10-1.4,14.1-4.2c0.9,9.7-2.1,22.2-6.5,29C312.9,1056.1,305.9,1058.2,297.3,1058.2z"/>
	<path fill="#FFFFFF" d="M380.5,898.1c0,13.7-8.1,21.1-20.2,21.1c-13.2,0-20.4-7.2-20.4-20.9c0-12.5,8.6-20.2,20.4-20.2
		C372.4,878.2,380.5,885.4,380.5,898.1z M343.4,940c3.2-1.6,8.8-2.8,16.9-2.8c8.1,0,13.7,1.2,16.7,2.8v111.7
		c-3,1.6-8.6,2.8-16.7,2.8c-8.1,0-13.7-1.2-16.9-2.8V940z"/>
	<path fill="#FFFFFF" d="M414.6,938.2v-10.7c0-36.6,18.1-49.6,44.3-49.6c10,0,17.6,1.9,24.3,5.6c4.9,7.2,6.5,20.4,5.1,29.7
		c-7.4-4.2-14.1-6-22-6c-12.7,0-18.1,5.8-18.1,18.1v13h28.3c1.4,2.8,2.1,8.6,2.1,14.4c0,5.8-0.7,11.6-2.1,14.4h-28.3v84.8
		c-3,1.6-8.6,2.8-16.7,2.8s-13.7-1.2-16.9-2.8v-84.8h-17.8c0-10,1.6-21.3,4.6-28.7H414.6z"/>
	<path fill="#FFFFFF" d="M521.4,1006.8c1.4,16.2,13,24.1,35.9,24.1c14.8,0,27.8-3.2,36.1-7c0.7,8.8-3,20.2-8.3,26.2
		c-7.6,4.4-20.6,8.1-36.6,8.1c-40.6,0-62.1-23.4-62.1-60.9c0-38.7,23.2-63.7,59.6-63.7c33.8,0,49.4,20.9,49.4,51.4
		c0,7.4-1.4,15.8-3.5,21.8H521.4z M563.8,982.5c1.9-12.1-2.5-23.9-19.2-23.9c-14.4,0-23.2,9.3-24.1,23.9H563.8z"/>
	<path fill="#FFFFFF" d="M650.7,1058.2c-23.2,0-30.1-15.1-30.1-35.7V887.5c7.9-4.4,18.8-6.7,33.6-6.7V1017c0,8.8,3,11.1,9.7,11.1
		c5.3,0,10-1.4,14.1-4.2c0.9,9.7-2.1,22.2-6.5,29C666.2,1056.1,659.2,1058.2,650.7,1058.2z"/>
	<path fill="#FFFFFF" d="M733.8,898.1c0,13.7-8.1,21.1-20.2,21.1c-13.2,0-20.4-7.2-20.4-20.9c0-12.5,8.6-20.2,20.4-20.2
		C725.7,878.2,733.8,885.4,733.8,898.1z M696.8,940c3.2-1.6,8.8-2.8,16.9-2.8s13.7,1.2,16.7,2.8v111.7c-3,1.6-8.6,2.8-16.7,2.8
		s-13.7-1.2-16.9-2.8V940z"/>
	<path fill="#FFFFFF" d="M796.9,1051.7c-3,1.6-8.6,2.8-16.7,2.8c-8.1,0-13.7-1.2-16.9-2.8V941.2c6.3-3.5,16.2-5.3,27.3-5.3l1.9,19
		h1.9c5.6-12.1,17.4-21.3,38.5-21.3c17.6,0,38.5,6.3,38.5,44.5v73.7c-3,1.6-8.6,2.8-16.7,2.8s-13.7-1.2-16.9-2.8v-67.7
		c0-12-4.2-19.7-17.8-19.7c-12.1,0-18.8,6-22.9,13.2V1051.7z"/>
	<path fill="#FFFFFF" d="M947.9,977.4l27.3-38.7c2.5-0.9,8.1-1.9,13.4-1.9c9.5,0,18.1,1.9,21.8,4.4l-35.2,48.9
		c11.8,20.6,24.8,41.2,41,61.6c-3.2,2.1-10.4,3-18.3,3c-8.8,0-17.6-1.2-21.5-3c-11.4-14.8-20.4-29.2-29.9-46.8h-10.2v46.8
		c-3,1.6-8.6,2.8-16.7,2.8s-13.7-1.2-16.9-2.8V887.5c7.9-4.4,18.8-6.7,33.6-6.7v96.6H947.9z"/>
</g>
<path opacity="0.7" fill="#0B7E83" d="M699.7,394.3c-39.9-22.7-105.2-22.7-145,0l-244,138.6c-39.9,22.7-39.9,59.7,0,82.4l244,138.6
	c39.9,22.7,105.2,22.7,145,0l244-138.6c39.9-22.7,39.9-59.7,0-82.4L699.7,394.3z"/>
<g>
	<path fill="#0B7E83" d="M699.7,274.6c-39.9-22.7-105.2-22.7-145,0l-244,138.6c-39.9,22.7-39.9,59.7,0,82.4l244,138.6
		c39.9,22.7,105.2,22.7,145,0l244-138.6c39.9-22.7,39.9-59.7,0-82.4L699.7,274.6z"/>
</g>
<g opacity="0.5">
	<path fill="#75CBCF" d="M699.7,122.4c-39.9-22.7-105.2-22.7-145,0L310.7,261c-39.9,22.7-39.9,59.7,0,82.4l244,138.6
		c39.9,22.7,105.2,22.7,145,0l244-138.6c39.9-22.7,39.9-59.7,0-82.4L699.7,122.4z"/>
</g>
<g>
	<path fill="#FFFFFF" d="M634.9,522.2c-31.4,0-61.2-7.1-84-20L307,363.6c-26.5-15-41.6-37.4-41.6-61.3s15.2-46.3,41.6-61.3
		l244-138.6c22.7-12.9,52.5-20,84-20c31.4,0,61.2,7.1,84,20l244,138.6c26.5,15,41.6,37.4,41.6,61.3s-15.2,46.3-41.6,61.3l-244,138.6
		C696.1,515.1,666.3,522.2,634.9,522.2z M634.9,128.6c-23.2,0-45.4,5.1-61.1,14l-244,138.6c-11.4,6.5-18.2,14.3-18.2,21.1
		s6.8,14.6,18.2,21.1l244,138.6c15.6,8.9,37.9,14,61.1,14s45.5-5.1,61.1-14l244-138.6c11.4-6.5,18.2-14.3,18.2-21.1
		s-6.8-14.6-18.2-21.1L696,142.6C680.4,133.7,658.1,128.6,634.9,128.6z"/>
</g>
<path fill="#FFFFFF" d="M326.7,231.8l224.3,127.4c22.7,12.9,52.5,20,84,20c31.4,0,61.2-7.1,84-20l30.9-17.6l-46.4-26.9l-7.4,4.2
	c-15.6,8.9-37.9,14-61.1,14s-45.5-5.1-61.1-14L375.6,206.3"/>
<path fill="#FFFFFF" d="M941.2,371.5L718.9,245.2c-22.7-12.9-52.5-20-84-20c-31.4,0-61.2,7.1-84,20l-30.4,17.2l47.3,26.5l6-3.4
	c15.6-8.9,37.9-14,61.1-14s45.5,5.1,61.1,14l194.4,110.4"/>
</svg>
