<?xml version="1.0" encoding="utf-8"?>
<!-- Generator: Adobe Illustrator 18.1.1, SVG Export Plug-In . SVG Version: 6.00 Build 0)  -->
<!DOCTYPE svg PUBLIC "-//W3C//DTD SVG 1.1//EN" "http://www.w3.org/Graphics/SVG/1.1/DTD/svg11.dtd">
<svg version="1.1" id="Layer_1" xmlns="http://www.w3.org/2000/svg" xmlns:xlink="http://www.w3.org/1999/xlink" x="0px" y="0px"
	 viewBox="0 0 499.9 120.3" enable-background="new 0 0 499.9 120.3" xml:space="preserve">
<g>
	<g>
		<path fill="none" d="M100,98.3c1.1,0.9,2.1,1.8,3.1,2.6c2.6-5.7,5.8-13.2,8.8-21.2c11.3-29.7,10.7-40.9,9.9-44.4
			c-3.5-15.1-16.7-25.6-32.1-25.6c-2.5,0-5,0.3-7.5,0.9c-8.6,2-15.9,7.2-20.6,14.7c-2.1,3.4-3.5,7.1-4.3,10.9c2.8,1,5.5,2.3,8.1,3.9
			C78.5,48.3,92.2,78.5,100,98.3z"/>
		<path fill="none" d="M82.8,82.8C70.8,57.2,63.2,50.5,60.4,48.7c-1.1-0.7-2.3-1.4-3.5-1.9c0.1,1.2,0.3,2.3,0.6,3.5
			C58.2,53.6,62.3,63.1,82.8,82.8z"/>
		<path fill="none" d="M47.9,52.5c-0.7-3-1-5.9-1.1-8.8c-1.1-0.1-2.2-0.2-3.4-0.2C32,43.4,21.1,49.3,15,59
			c-9.6,15.5-5.2,35.9,10.2,45.5c2.5,1.6,11,5.2,35.4,5.2c12,0,24.1-0.8,32.6-1.6c-0.5-1.2-1-2.5-1.5-3.9
			C75.6,90.3,51.4,67.6,47.9,52.5z"/>
		<polygon fill="#FFAD45" points="89.7,9.8 89.7,9.8 89.7,9.8 		"/>
		<path fill="#BDE5B1" d="M106.7,116.3L106.7,116.3c0,0-6.3-4.8-14.9-12.1c0.5,1.4,1,2.7,1.5,3.9c-8.6,0.8-20.7,1.6-32.6,1.6
			c-24.5,0-32.9-3.6-35.4-5.2C9.8,94.9,5.4,74.4,15,59c6.1-9.7,17-15.6,28.4-15.6c1.2,0,2.3,0.1,3.4,0.2c3.5,0.4,6.8,1.5,10,3.1
			c1.2,0.6,2.3,1.2,3.5,1.9c2.9,1.8,10.5,8.5,22.4,34.1c1,1,2.1,2,3.2,3.1c5,4.6,9.8,8.9,14,12.4c-7.9-19.8-21.5-50-34.7-58.2
			c-2.6-1.6-5.3-2.9-8.1-3.9c-3.1-1.1-6.3-1.9-9.5-2.3c-1.7-0.2-3.3-0.3-5-0.3c-14.3,0-28.2,7.1-36.4,20.2
			c-12.5,20.1-6.4,46.5,13.7,59c8.3,5.2,24.4,6.7,40.6,6.7C83.7,119.5,106.7,116.4,106.7,116.3C106.7,116.4,106.7,116.3,106.7,116.3
			z"/>
		<path fill="#72CCCE" d="M131.3,33.2C126.8,13.4,109.2,0,89.7,0c-3.2,0-6.5,0.4-9.7,1.1C63.2,5,51.1,18.2,47.8,34
			c3.2,0.4,6.4,1.1,9.5,2.3c0.8-3.8,2.2-7.5,4.3-10.9c4.7-7.5,12-12.7,20.6-14.7c2.5-0.6,5-0.9,7.5-0.9c15.4,0,28.6,10.5,32.1,25.6
			c0.8,3.4,1.4,14.7-9.9,44.4c-3,8-6.2,15.4-8.8,21.2c-1-0.8-2-1.7-3.1-2.6c-4.2-3.6-9.1-7.8-14-12.4c-1.1-1-2.2-2.1-3.2-3.1
			C62.3,63.1,58.2,53.6,57.5,50.3c-0.3-1.2-0.5-2.3-0.6-3.5c-3.2-1.6-6.5-2.7-10-3.1c0.1,2.9,0.4,5.9,1.1,8.8
			c3.5,15.1,27.7,37.8,43.9,51.7c8.5,7.3,14.8,12.1,14.8,12.1l0,0C106.8,116.1,136.7,56.1,131.3,33.2z"/>
	</g>
	<g>
		<path fill="#BDE5B1" d="M165.1,120.3c-8,0-12-4.6-12-14V33.9c2.3-1.4,5.9-2.2,10.2-2.2v72.8c0,5.2,1.9,6.5,5.3,6.5
			c2.8,0,5.4-0.9,7.2-2.3c0.2,3.4-0.6,7.5-2.2,9.6C171.6,119.5,168.5,120.3,165.1,120.3z"/>
		<path fill="#BDE5B1" d="M199.4,41.1c0,4.6-2.7,7-6.8,7c-4.5,0-6.8-2.3-6.8-6.9c0-4.2,2.8-6.8,6.8-6.8
			C196.7,34.4,199.4,36.8,199.4,41.1z M187.4,61.9c1.1-0.6,2.7-0.8,5.2-0.8c2.5,0,4,0.2,5.1,0.8v55.4c-1.1,0.6-2.6,0.8-5.1,0.8
			c-2.5,0-4.1-0.2-5.2-0.8V61.9z"/>
		<path fill="#BDE5B1" d="M219.9,61.3v-9.6c0-16.7,8-21.7,18.7-21.7c4.8,0,8.6,1.1,11.6,3.2c1.6,2.2,2.3,6.7,1.8,10
			c-3.8-2.8-7.3-3.9-11.3-3.9c-8.2,0-10.6,4.5-10.6,11.7v10.3h15.7c0.5,0.9,0.7,2.5,0.7,4.6c0,2.1-0.2,3.8-0.7,4.7h-15.7v46.7
			c-1.1,0.6-2.6,0.8-5.1,0.8c-2.5,0-4.1-0.2-5.2-0.8V70.6H211c0-3.5,0.5-6.8,1.4-9.3H219.9z"/>
		<path fill="#BDE5B1" d="M262,92.8c0.5,12.8,8.5,18.2,21.1,18.2c7.2,0,13.2-1.8,17.7-4.5c0.4,3.3-0.9,7.6-2.6,9.5
			c-3.6,2.2-9.7,4.2-17.5,4.2c-18.9,0-29.4-11.7-29.4-30.1C251.4,72,262,59,279.4,59c15.5,0,22.7,10.1,22.7,24.3
			c0,3.5-0.5,6.7-1.4,9.5H262z M291.9,84.2c0.8-7.7-1.6-16.4-13-16.4c-10,0-16,6.6-16.8,16.4H291.9z"/>
		<path fill="#72CCCE" d="M329.4,120.3c-8,0-12-4.6-12-14V33.9c2.3-1.4,5.9-2.2,10.2-2.2v72.8c0,5.2,1.9,6.5,5.3,6.5
			c2.8,0,5.4-0.9,7.2-2.3c0.2,3.4-0.6,7.5-2.2,9.6C335.9,119.5,332.8,120.3,329.4,120.3z"/>
		<path fill="#72CCCE" d="M363.7,41.1c0,4.6-2.7,7-6.8,7c-4.5,0-6.8-2.3-6.8-6.9c0-4.2,2.8-6.8,6.8-6.8
			C361,34.4,363.7,36.8,363.7,41.1z M351.7,61.9c1.1-0.6,2.7-0.8,5.2-0.8c2.5,0,4,0.2,5.1,0.8v55.4c-1.1,0.6-2.6,0.8-5.1,0.8
			c-2.5,0-4.1-0.2-5.2-0.8V61.9z"/>
		<path fill="#72CCCE" d="M392.1,117.4c-1.1,0.6-2.6,0.8-5.1,0.8c-2.5,0-4.1-0.2-5.2-0.8V62c2-1.1,5-1.6,8.3-1.6l0.7,8.8h0.5
			c2.6-5.4,8.5-10.2,19.5-10.2c9.3,0,19.7,3.3,19.7,22.3v36.1c-1.1,0.6-2.6,0.8-5,0.8c-2.5,0-4.1-0.2-5.2-0.8V83.3
			c0-9-2.9-14.8-12.7-14.8c-8.3,0-13.2,4.3-15.6,9V117.4z"/>
		<path fill="#72CCCE" d="M468.4,83.1l17.3-21.6c0.8-0.4,2.7-0.6,4.3-0.6c3.1,0,5.9,0.6,7,1.3l-20.6,25.4
			c7.3,10.6,13.7,19.5,23.4,29.8c-0.9,0.6-3.5,0.9-6,0.9c-3.1,0-6.1-0.4-7.4-0.9c-7.2-8.2-12.8-16.1-19.1-25.8h-7.3v25.8
			c-1.1,0.6-2.6,0.8-5.1,0.8c-2.5,0-4.1-0.2-5.2-0.8V33.9c2.3-1.4,5.9-2.2,10.2-2.2v51.4H468.4z"/>
	</g>
</g>
</svg>
