<?xml version="1.0" encoding="utf-8"?>
<!-- Generator: Adobe Illustrator 18.1.1, SVG Export Plug-In . SVG Version: 6.00 Build 0)  -->
<!DOCTYPE svg PUBLIC "-//W3C//DTD SVG 1.1//EN" "http://www.w3.org/Graphics/SVG/1.1/DTD/svg11.dtd">
<svg version="1.1" id="Layer_1" xmlns:sketch="http://www.bohemiancoding.com/sketch/ns"
	 xmlns="http://www.w3.org/2000/svg" xmlns:xlink="http://www.w3.org/1999/xlink" x="0px" y="0px" viewBox="-616.5 618.5 44 44"
	 enable-background="new -616.5 618.5 44 44" xml:space="preserve">
<title>Rectangle 22 + Line + Line Copy 4</title>
<desc>Created with Sketch.</desc>
<g id="Page-1" sketch:type="MSPage" opacity="0.5">
	<g id="About-Us---Layout-Idea" transform="translate(-261.000000, -2620.000000)" sketch:type="MSArtboardGroup">
		<g id="Rectangle-22-_x2B_-Line-_x2B_-Line-Copy-4" transform="translate(261.000000, 2620.000000)" sketch:type="MSLayerGroup">
			<path id="Rectangle-22" sketch:type="MSShapeGroup" fill="none" stroke="#FFFFFF" stroke-width="2" d="M-610.1,621.1h31.1
				c2.5,0,4.4,2,4.4,4.4V646c0,2.5-2,4.4-4.4,4.4h-31.1c-2.5,0-4.4-2-4.4-4.4v-20.4C-614.5,623.1-612.5,621.1-610.1,621.1z"/>
			<g id="Line-_x2B_-Line-Copy-4" transform="translate(11.000000, 32.000000)" sketch:type="MSShapeGroup">
				<path id="Line" fill="none" stroke="#FFFFFF" stroke-width="2" stroke-linecap="square" d="M-605.5,618l-9.8,9.8"/>
				<path id="Line_1_" fill="none" stroke="#FFFFFF" stroke-width="2" stroke-linecap="square" d="M-605.1,618.9v8.9"/>
				<path id="Line-Copy-4" fill="none" stroke="#FFFFFF" stroke-width="2" stroke-linecap="square" d="M-604.6,618l9.8,9.8"/>
			</g>
			<path id="Line_2_" sketch:type="MSShapeGroup" fill="none" stroke="#FFFFFF" stroke-width="2" stroke-linecap="square" d="
				M-613.2,645.2l8.4-8.1l4.3,3.3l10.8-11.2l5.3,4.3l8.6-8.4"/>
		</g>
	</g>
</g>
</svg>
